HIERARCHY
ROOT joint_Root
{
	OFFSET 0.0 0.0 0.0
	CHANNELS 6 Xposition Yposition Zposition Zrotation Xrotation Yrotation 
	JOINT Hips
	{
		OFFSET -17.1583 93.1646 452.98
		CHANNELS 6 Xposition Yposition Zposition Zrotation Xrotation Yrotation 
		JOINT Spine
		{
			OFFSET 15.7357 0.0 0.0
			CHANNELS 6 Xposition Yposition Zposition Zrotation Xrotation Yrotation 
			JOINT Chest
			{
				OFFSET 8.98455 -0.406207 0.0
				CHANNELS 6 Xposition Yposition Zposition Zrotation Xrotation Yrotation 
				JOINT Neck
				{
					OFFSET 16.3773 0.0 0.0
					CHANNELS 6 Xposition Yposition Zposition Zrotation Xrotation Yrotation 
					JOINT Head
					{
						OFFSET 6.45672 0.0 0.0
						CHANNELS 6 Xposition Yposition Zposition Zrotation Xrotation Yrotation 
						End Site
						{
							OFFSET 0.0 0.0 0.0
						}
					}
				}
				JOINT Shoulder_L
				{
					OFFSET 12.9942 -0.242716 4.98039
					CHANNELS 6 Xposition Yposition Zposition Zrotation Xrotation Yrotation 
					JOINT UpperArm_L
					{
						OFFSET 5.34809 0.0 0.0
						CHANNELS 6 Xposition Yposition Zposition Zrotation Xrotation Yrotation 
						JOINT LowerArm_L
						{
							OFFSET 24.3286 1.87007e-05 0.0
							CHANNELS 6 Xposition Yposition Zposition Zrotation Xrotation Yrotation 
							JOINT Hand_L
							{
								OFFSET 22.2916 0.0 0.0
								CHANNELS 6 Xposition Yposition Zposition Zrotation Xrotation Yrotation 
								End Site
								{
									OFFSET 0.0 0.0 0.0
								}
							}
						}
					}
				}
				JOINT Shoulder_R
				{
					OFFSET 12.9945 -0.242716 -4.98039
					CHANNELS 6 Xposition Yposition Zposition Zrotation Xrotation Yrotation 
					JOINT UpperArm_R
					{
						OFFSET -5.34813 0.0 0.0
						CHANNELS 6 Xposition Yposition Zposition Zrotation Xrotation Yrotation 
						JOINT LowerArm_R
						{
							OFFSET -24.3289 0.000322201 0.0
							CHANNELS 6 Xposition Yposition Zposition Zrotation Xrotation Yrotation 
							JOINT Hand_R
							{
								OFFSET -22.2915 -0.000108084 0.0
								CHANNELS 6 Xposition Yposition Zposition Zrotation Xrotation Yrotation 
								End Site
								{
									OFFSET 0.0 0.0 0.0
								}
							}
						}
					}
				}
			}
		}
		JOINT UpperLeg_L
		{
			OFFSET -2.19248 -6.46944 0.0
			CHANNELS 6 Xposition Yposition Zposition Zrotation Xrotation Yrotation 
			JOINT LowerLeg_L
			{
				OFFSET 39.0811 0.0 -1.23785e-05
				CHANNELS 6 Xposition Yposition Zposition Zrotation Xrotation Yrotation 
				JOINT Foot_L
				{
					OFFSET 40.9854 0.0 -1.26872e-05
					CHANNELS 6 Xposition Yposition Zposition Zrotation Xrotation Yrotation 
					JOINT Toes_L
					{
						OFFSET 11.7543 0.0 0.0
						CHANNELS 6 Xposition Yposition Zposition Zrotation Xrotation Yrotation 
						End Site
						{
							OFFSET 0.0 0.0 0.0
						}
					}
				}
			}
		}
		JOINT UpperLeg_R
		{
			OFFSET -2.19251 6.46944 0.0
			CHANNELS 6 Xposition Yposition Zposition Zrotation Xrotation Yrotation 
			JOINT LowerLeg_R
			{
				OFFSET -39.0811 -0.00228153 -0.0401928
				CHANNELS 6 Xposition Yposition Zposition Zrotation Xrotation Yrotation 
				JOINT Foot_R
				{
					OFFSET -40.9854 0.0 0.0
					CHANNELS 6 Xposition Yposition Zposition Zrotation Xrotation Yrotation 
					JOINT Toes_R
					{
						OFFSET -11.7543 0.0 0.0
						CHANNELS 6 Xposition Yposition Zposition Zrotation Xrotation Yrotation 
						End Site
						{
							OFFSET 0.0 0.0 0.0
						}
					}
				}
			}
		}
	}
}
MOTION
Frames:	4
Frame Time:	0.0333333
0.000000 0.000000 0.000000 0.000000 0.000000 -0.000000 -189.272000 91.649500 241.208000 83.044400 82.519300 2.993530 15.735700 0.000005 -0.000001 52.593200 86.705800 -51.681800 8.984550 -0.406207 -0.000000 -2.502000 -4.082630 1.734030 16.377300 -0.000001 -0.000001 3.299970 6.537510 -2.158230 6.456720 -0.000001 -0.000000 7.386860 10.681100 0.574636 12.994200 -0.242716 4.980390 -92.095900 6.502690 -72.091800 5.348090 -0.000007 -0.000001 -69.284300 -7.186050 -11.880100 24.328600 0.000019 0.000005 43.297300 13.775900 -75.817500 22.291600 -0.000001 0.000005 51.873000 4.551680 15.737200 12.994500 -0.242716 -4.980390 89.696500 0.933869 -71.997100 -5.348130 -0.000001 -0.000004 -66.515000 -1.126720 13.797900 -24.328900 0.000322 -0.000009 0.512277 11.686100 -2.532610 -22.291500 -0.000108 -0.000004 33.506700 5.179060 3.238810 -2.192480 -6.469440 -0.000000 178.801000 -6.611300 6.714250 39.081100 -0.000007 -0.000012 0.001669 -0.007335 12.826200 40.985400 -0.000006 -0.000013 -0.736436 12.675200 -65.370800 11.754300 -0.000000 0.000003 1.540210 1.788600 -18.262800 -2.192510 6.469440 -0.000001 -178.691000 -11.324000 155.087000 -39.081100 -0.002282 -0.040193 0.002560 0.005630 7.908360 -40.985400 0.000008 0.000006 -1.405070 -11.298300 -62.238400 -11.754300 -0.000006 -0.000006 -0.003595 0.214826 -7.855440
0.000000 0.000000 0.000000 0.000000 0.000000 -0.000000 -185.884000 90.931000 241.466000 81.122700 82.651200 4.580840 15.735700 0.000005 -0.000001 50.934800 86.810200 -49.965700 8.984550 -0.406207 -0.000000 -2.780270 -4.108150 1.839370 16.377300 -0.000001 -0.000001 3.237530 6.558850 -2.210430 6.456720 -0.000001 -0.000000 7.348090 10.718900 0.510057 12.994200 -0.242716 4.980390 -92.147800 6.755790 -72.317800 5.348090 -0.000007 -0.000001 -69.267200 -7.055210 -12.940200 24.328600 0.000019 0.000005 42.809300 13.833200 -75.526900 22.291600 -0.000001 0.000005 52.083800 4.530080 16.099600 12.994500 -0.242716 -4.980390 89.556700 1.367470 -72.037400 -5.348130 -0.000001 -0.000004 -65.754200 -1.654110 13.666800 -24.328900 0.000322 -0.000009 0.526650 10.962300 -2.773340 -22.291500 -0.000108 -0.000004 33.686200 5.182110 3.163850 -2.192480 -6.469440 -0.000000 179.252000 -6.463970 7.429490 39.081100 -0.000007 -0.000012 0.001706 -0.006323 15.103600 40.985400 -0.000006 -0.000013 -0.661058 13.227200 -66.140000 11.754300 -0.000000 0.000003 1.026090 1.027600 -20.388200 -2.192510 6.469440 -0.000001 -177.167000 -8.899310 153.731000 -39.081100 -0.002282 -0.040193 0.005104 -0.014935 6.718360 -40.985400 0.000008 0.000006 -3.034710 -5.800540 -62.678200 -11.754300 -0.000006 -0.000006 -0.003910 0.218174 -7.719100
0.000000 0.000000 0.000000 0.000000 0.000000 -0.000000 -182.036000 90.231200 241.747000 76.994200 83.050900 8.071950 15.735700 0.000005 -0.000001 45.908600 87.012000 -44.747700 8.984550 -0.406207 -0.000000 -3.434120 -4.269380 2.195190 16.377300 -0.000001 -0.000001 3.168780 6.559610 -2.300010 6.456720 -0.000001 -0.000000 7.532140 10.729700 0.354403 12.994200 -0.242716 4.980390 -92.164100 6.834260 -72.382700 5.348090 -0.000007 -0.000001 -69.770900 -5.959860 -13.072500 24.328600 0.000019 0.000005 42.430100 15.114900 -74.078400 22.291600 -0.000001 0.000005 52.122100 4.512270 16.396500 12.994500 -0.242716 -4.980390 89.428200 1.753390 -71.934000 -5.348130 -0.000001 -0.000004 -65.383300 -1.789980 13.319300 -24.328900 0.000322 -0.000009 0.693676 10.516400 -3.800490 -22.291500 -0.000108 -0.000004 33.585100 5.189500 2.980810 -2.192480 -6.469440 -0.000000 -179.872000 -6.674180 7.724680 39.081100 -0.000007 -0.000012 0.001274 -0.003975 17.781300 40.985400 -0.000006 -0.000013 -0.611728 14.543800 -65.646900 11.754300 -0.000000 0.000003 -0.023209 -0.184469 -24.120200 -2.192510 6.469440 -0.000001 -175.994000 -7.698130 153.280000 -39.081100 -0.002282 -0.040193 0.005196 -0.015849 6.664440 -40.985400 0.000008 0.000006 -3.792170 -2.933620 -61.906200 -11.754300 -0.000006 -0.000006 -0.003570 0.214555 -7.866450
0.000000 0.000000 0.000000 0.000000 0.000000 -0.000000 -177.924000 89.816000 242.162000 66.077400 83.221700 17.359200 15.735700 0.000005 -0.000001 34.666500 87.506200 -32.956900 8.984550 -0.406207 -0.000000 -4.870040 -4.286460 3.240610 16.377300 -0.000001 -0.000001 3.123340 6.503410 -2.664860 6.456720 -0.000001 -0.000000 7.903070 10.593000 0.251248 12.994200 -0.242716 4.980390 -92.268700 7.205950 -72.472100 5.348090 -0.000007 -0.000001 -70.320100 -3.977030 -12.142300 24.328600 0.000019 0.000005 41.296800 17.418700 -71.181200 22.291600 -0.000001 0.000005 52.147100 4.493380 16.709300 12.994500 -0.242716 -4.980390 89.225300 2.374440 -71.924800 -5.348130 -0.000001 -0.000004 -65.060600 -1.842740 12.999900 -24.328900 0.000322 -0.000009 1.057170 10.875500 -5.590840 -22.291500 -0.000108 -0.000004 33.611700 5.206630 2.552460 -2.192480 -6.469440 -0.000000 -178.122000 -7.346990 6.702650 39.081100 -0.000007 -0.000012 0.006511 -0.017208 20.726600 40.985400 -0.000006 -0.000013 -1.024740 16.064000 -62.828400 11.754300 -0.000000 0.000003 -0.065736 -0.349994 -31.052900 -2.192510 6.469440 -0.000001 -174.807000 -9.686680 149.784000 -39.081100 -0.002282 -0.040193 -0.009313 0.057894 12.323300 -40.985400 0.000008 0.000006 1.493750 -5.183650 -55.597100 -11.754300 -0.000006 -0.000006 -0.002814 0.206150 -8.208570
